<?xml version="1.0" encoding="UTF-8"?>
<svg version="1.1" xmlns="http://www.w3.org/2000/svg" width="500" height="500">
<path d="M0 0 C1.19447754 0.32097656 1.19447754 0.32097656 2.41308594 0.6484375 C42.36814748 11.65178637 78.28622294 39.55007766 99.31884766 75.23779297 C108.44518583 91.42990015 114.92109211 107.87523535 119 126 C119.24991699 127.08063721 119.24991699 127.08063721 119.50488281 128.18310547 C124.28393283 149.71851409 123.92169221 174.53654269 119 196 C118.7215625 197.25683594 118.443125 198.51367188 118.15625 199.80859375 C113.05080954 220.60446114 104.40477991 243.0536163 91 260 C90.34 260 89.68 260 89 260 C88.75378906 260.55300781 88.50757813 261.10601562 88.25390625 261.67578125 C83.76393312 269.99831711 76.15479106 277.87380469 69 284 C68.34 284 67.68 284 67 284 C67 284.66 67 285.32 67 286 C65.69335937 287.26171875 65.69335937 287.26171875 63.84375 288.6875 C63.15982178 289.21625732 62.47589355 289.74501465 61.77124023 290.28979492 C30.6867223 313.69590565 -3.58992148 327.46963388 -42.875 327.375 C-44.09272598 327.37468277 -44.09272598 327.37468277 -45.33505249 327.37435913 C-64.70462262 327.32414869 -82.73808933 324.53499767 -101 318 C-102.10214844 317.62101562 -103.20429688 317.24203125 -104.33984375 316.8515625 C-111.8640895 314.13371373 -118.79654424 310.62190101 -125.78515625 306.76953125 C-128.17037657 305.4566457 -130.55257901 304.19014238 -133 303 C-133 302.34 -133 301.68 -133 301 C-133.99 301 -134.98 301 -136 301 C-136 300.34 -136 299.68 -136 299 C-136.556875 298.9175 -137.11375 298.835 -137.6875 298.75 C-140.69994803 297.77298983 -142.59382333 296.02625404 -145 294 C-145.66 293.67 -146.32 293.34 -147 293 C-147 292.34 -147 291.68 -147 291 C-147.61875 290.690625 -148.2375 290.38125 -148.875 290.0625 C-150.25 289.375 -151.625 288.6875 -153 288 C-153 287.34 -153 286.68 -153 286 C-153.58910156 285.73832031 -154.17820313 285.47664063 -154.78515625 285.20703125 C-157.11785434 283.9357725 -158.60354368 282.59769469 -160.4375 280.6875 C-160.99308594 280.11386719 -161.54867187 279.54023438 -162.12109375 278.94921875 C-162.74113281 278.30597656 -163.36117187 277.66273438 -164 277 C-164.79535156 276.21882813 -165.59070313 275.43765625 -166.41015625 274.6328125 C-184 256.75113122 -184 256.75113122 -184 250 C-184.66 250 -185.32 250 -186 250 C-188.02262908 246.01007212 -190.02500017 242.0107918 -192.0078125 238.00097656 C-192.6418467 236.72229932 -193.2795142 235.44541303 -193.921875 234.17089844 C-199.14298897 223.78019465 -203.00701766 213.23411421 -206 202 C-206.21317871 201.21431641 -206.42635742 200.42863281 -206.64599609 199.61914062 C-217.4794949 157.65973683 -208.59671713 111.94149305 -187.12109375 75.0234375 C-186.1265321 73.34649829 -185.1278885 71.67197269 -184.125 70 C-183.64828857 69.20287598 -183.17157715 68.40575195 -182.68041992 67.58447266 C-182.23158447 66.85534668 -181.78274902 66.1262207 -181.3203125 65.375 C-180.72114014 64.39660156 -180.72114014 64.39660156 -180.10986328 63.3984375 C-179.7436084 62.93695313 -179.37735352 62.47546875 -179 62 C-178.34 62 -177.68 62 -177 62 C-176.731875 61.42765625 -176.46375 60.8553125 -176.1875 60.265625 C-174.95867364 57.92115366 -173.57477824 55.87595062 -172 53.75 C-171.484375 53.04359375 -170.96875 52.3371875 -170.4375 51.609375 C-169.963125 51.07828125 -169.48875 50.5471875 -169 50 C-168.34 50 -167.68 50 -167 50 C-166.7628125 49.43796875 -166.525625 48.8759375 -166.28125 48.296875 C-161.77050793 40.21054471 -152.5459511 33.19509711 -145 28 C-144.34 28 -143.68 28 -143 28 C-143 27.34 -143 26.68 -143 26 C-141.09356401 24.52896538 -139.21486596 23.22529254 -137.1875 21.9375 C-136.5702002 21.54336914 -135.95290039 21.14923828 -135.31689453 20.74316406 C-127.25520535 15.74154534 -118.6533744 11.85314877 -110 8 C-108.87078125 7.49339844 -107.7415625 6.98679687 -106.578125 6.46484375 C-99.53726262 3.41939137 -92.4273935 0.9239172 -85 -1 C-84.30374512 -1.18481934 -83.60749023 -1.36963867 -82.89013672 -1.56005859 C-56.45245226 -8.27899669 -26.14397619 -7.32622158 0 0 Z M-119 22 C-120.06992188 22.5775 -121.13984375 23.155 -122.2421875 23.75 C-128.73217839 27.39113775 -134.62512727 31.54608093 -140.50390625 36.08203125 C-142.28793914 37.4528609 -144.12798904 38.75199269 -146 40 C-146 40.66 -146 41.32 -146 42 C-146.53625 42.226875 -147.0725 42.45375 -147.625 42.6875 C-153.789003 46.09392271 -158.81326254 51.38878086 -163 57 C-163 57.66 -163 58.32 -163 59 C-163.66 59 -164.32 59 -165 59 C-190.51905624 88.38397555 -204.18538711 129.24282867 -202 168 C-200.52759896 188.2053788 -196.97174368 207.67574899 -188 226 C-187.39438929 227.27336999 -186.78893046 228.54681223 -186.18359375 229.8203125 C-182.05999413 238.38526363 -177.50510632 246.23155233 -172 254 C-171.49082031 254.75667969 -170.98164063 255.51335937 -170.45703125 256.29296875 C-169.36167248 257.90227884 -168.19031253 259.45959555 -167 261 C-166.34 261 -165.68 261 -165 261 C-165 261.66 -165 262.32 -165 263 C-164.34 263 -163.68 263 -163 263 C-162.5978125 263.86625 -162.5978125 263.86625 -162.1875 264.75 C-160.97070811 267.05550043 -159.69666121 269.02056192 -158 271 C-157.34 271 -156.68 271 -156 271 C-156 271.66 -156 272.32 -156 273 C-155.34 273 -154.68 273 -154 273 C-154 273.66 -154 274.32 -154 275 C-152.28668011 276.81067374 -152.28668011 276.81067374 -150.125 278.625 C-149.04605469 279.57246094 -149.04605469 279.57246094 -147.9453125 280.5390625 C-146.13893067 282.20017123 -146.13893067 282.20017123 -144 282 C-144 282.66 -144 283.32 -144 284 C-142.45426597 285.32175373 -142.45426597 285.32175373 -140.4140625 286.609375 C-139.65311279 287.11388184 -138.89216309 287.61838867 -138.1081543 288.13818359 C-137.28871338 288.67008301 -136.46927246 289.20198242 -135.625 289.75 C-134.79589111 290.29350098 -133.96678223 290.83700195 -133.11254883 291.39697266 C-130.74767743 292.94080149 -128.37568899 294.47288523 -126 296 C-125.02160156 296.63164062 -124.04320312 297.26328125 -123.03515625 297.9140625 C-103.901087 309.82112057 -83.11243724 315.04352131 -61 317.75 C-59.44321533 317.94154663 -59.44321533 317.94154663 -57.85498047 318.13696289 C-33.34264209 320.93595643 -8.88467714 316.84734012 14 308 C15.19625 307.54753906 16.3925 307.09507812 17.625 306.62890625 C30.45382535 301.4827979 41.83290539 293.83697116 52.86328125 285.59375 C54.53832785 284.3443551 56.2612799 283.15914673 58 282 C58 281.34 58 280.68 58 280 C58.53625 279.773125 59.0725 279.54625 59.625 279.3125 C65.789003 275.90607729 70.81326254 270.61121914 75 265 C75 264.34 75 263.68 75 263 C75.66 263 76.32 263 77 263 C79.22466491 260.64454939 81.04458224 257.93769454 82.9375 255.3125 C83.51363037 254.51392578 84.08976074 253.71535156 84.68334961 252.89257812 C109.65415462 217.36208233 118.28340996 174.41375485 111.33203125 131.76171875 C106.63128169 106.33611754 95.54248399 81.87687901 79 62 C78.34 61.01 77.68 60.02 77 59 C76.34 59 75.68 59 75 59 C74.6596875 58.195625 74.6596875 58.195625 74.3125 57.375 C70.90607729 51.210997 65.61121914 46.18673746 60 42 C59.34 42 58.68 42 58 42 C58 41.34 58 40.68 58 40 C55.64454939 37.77533509 52.93769454 35.95541776 50.3125 34.0625 C49.51392578 33.48636963 48.71535156 32.91023926 47.89257812 32.31665039 C-1.15903613 -2.15678623 -66.26529576 -6.79045299 -119 22 Z " fill="#1C1C1C" transform="translate(294,89)"/>
<path d="M0 0 C1.17691406 -0.07089844 2.35382813 -0.14179688 3.56640625 -0.21484375 C12.11870471 -0.39762628 12.11870471 -0.39762628 15.62084961 2.453125 C17.42981073 4.75865892 18.91934704 7.08413842 20.375 9.625 C21.15269814 10.74145196 21.93912364 11.85193179 22.73828125 12.953125 C23.70314453 14.39945313 23.70314453 14.39945313 24.6875 15.875 C25.34363281 16.84953125 25.99976563 17.8240625 26.67578125 18.828125 C28.228448 21.38377878 29.36576492 23.81758466 30.375 26.625 C31.035 26.625 31.695 26.625 32.375 26.625 C34.1015625 28.9609375 34.1015625 28.9609375 36 32 C36.63164062 32.99773437 37.26328125 33.99546875 37.9140625 35.0234375 C39.375 37.625 39.375 37.625 39.375 39.625 C40.035 39.625 40.695 39.625 41.375 39.625 C42.52001953 41.00195312 42.52001953 41.00195312 43.7578125 42.90625 C44.20253906 43.58300781 44.64726562 44.25976562 45.10546875 44.95703125 C45.56566406 45.67246094 46.02585937 46.38789063 46.5 47.125 C46.96792969 47.84042969 47.43585938 48.55585938 47.91796875 49.29296875 C49.07652501 51.06626915 50.22656066 52.8451309 51.375 54.625 C51.39987171 49.64453488 51.41794081 44.66410658 51.42993164 39.68359375 C51.43493487 37.99218109 51.44173952 36.30077269 51.45043945 34.609375 C51.46268185 32.16665589 51.46826855 29.72399438 51.47265625 27.28125 C51.47781754 26.53508423 51.48297882 25.78891846 51.48829651 25.0201416 C51.48880862 20.13744027 51.06535046 15.45984201 50.375 10.625 C47.075 10.295 43.775 9.965 40.375 9.625 C40.27734375 3.47265625 40.27734375 3.47265625 40.375 1.625 C42.05173649 -0.05173649 44.10355076 0.49712183 46.34155273 0.48605347 C47.37904663 0.48908981 47.37904663 0.48908981 48.4375 0.4921875 C49.14398682 0.49123077 49.85047363 0.49027405 50.57836914 0.48928833 C52.07470793 0.48860667 53.57104967 0.49045995 55.06738281 0.49462891 C57.36530157 0.49997743 59.66302486 0.49468349 61.9609375 0.48828125 C63.41145877 0.48894203 64.86197991 0.4902232 66.3125 0.4921875 C67.0041626 0.49016327 67.6958252 0.48813904 68.40844727 0.48605347 C73.26004776 0.51004776 73.26004776 0.51004776 74.375 1.625 C74.625 5.0625 74.625 5.0625 74.375 8.625 C70.93049263 10.92133824 68.43687717 11.16516485 64.375 11.625 C64.36469254 12.5122728 64.35438507 13.39954559 64.34376526 14.31370544 C64.24596575 22.65751571 64.14347685 31.00125215 64.03566074 39.34493923 C63.98039264 43.6349621 63.92696657 47.92499174 63.87768555 52.21508789 C63.83009914 56.35185436 63.77775868 60.48853536 63.72205925 64.62520027 C63.70160966 66.20689847 63.68290097 67.78862012 63.66592598 69.37035942 C63.6419393 71.57829178 63.61187744 73.7860612 63.58032227 75.99389648 C63.56477798 77.25298325 63.5492337 78.51207001 63.53321838 79.80931091 C63.375 82.625 63.375 82.625 62.375 83.625 C60.23046875 83.86328125 60.23046875 83.86328125 57.5625 83.9375 C56.68980469 83.97488281 55.81710937 84.01226562 54.91796875 84.05078125 C50.8596495 83.37127772 49.2643642 80.79923868 46.875 77.64453125 C46.38 76.91621094 45.885 76.18789063 45.375 75.4375 C42.07749532 70.64048349 38.73729727 65.87669348 35.375 61.125 C32.17190649 56.59395015 28.97615763 52.0587163 25.8125 47.5 C23.76661974 44.55332172 21.66158097 41.66117498 19.5078125 38.79296875 C18.7489978 37.77710693 18.7489978 37.77710693 17.97485352 36.74072266 C16.96594265 35.39326508 15.95098352 34.0503107 14.92944336 32.71240234 C11.375 27.9586222 11.375 27.9586222 11.375 24.625 C10.715 24.625 10.055 24.625 9.375 24.625 C9.705 40.465 10.035 56.305 10.375 72.625 C13.675 73.285 16.975 73.945 20.375 74.625 C21.375 75.625 21.375 75.625 21.5 79.125 C21.375 82.625 21.375 82.625 20.375 83.625 C17.93839554 83.72582764 15.53075299 83.76472603 13.09375 83.7578125 C12.36506714 83.75876923 11.63638428 83.75972595 10.88562012 83.76071167 C9.3422029 83.76139335 7.79878283 83.75953988 6.25537109 83.75537109 C3.885026 83.75002262 1.51487041 83.75531642 -0.85546875 83.76171875 C-2.35156292 83.76105797 -3.84765697 83.7597768 -5.34375 83.7578125 C-6.41405457 83.76084885 -6.41405457 83.76084885 -7.50598145 83.76394653 C-12.51004809 83.73995191 -12.51004809 83.73995191 -13.625 82.625 C-13.8125 79.1875 -13.8125 79.1875 -13.625 75.625 C-11.04241077 73.04241077 -8.89624388 72.89512534 -5.40234375 72.1875 C-4.81582031 72.001875 -4.22929687 71.81625 -3.625 71.625 C-2.30642452 68.98784904 -2.50508296 67.0266736 -2.51147461 64.07373047 C-2.51158791 62.33215164 -2.51158791 62.33215164 -2.51170349 60.5553894 C-2.51686478 59.29703278 -2.52202606 58.03867615 -2.52734375 56.7421875 C-2.5287587 55.45764679 -2.53017365 54.17310608 -2.53163147 52.84963989 C-2.53545089 49.43343158 -2.54527627 46.01726574 -2.55633545 42.60107422 C-2.56656193 39.11556574 -2.57113174 35.6300504 -2.57617188 32.14453125 C-2.58689904 25.30467005 -2.60396858 18.46483706 -2.625 11.625 C-3.33527344 11.49222656 -4.04554688 11.35945312 -4.77734375 11.22265625 C-5.69644531 11.04605469 -6.61554688 10.86945313 -7.5625 10.6875 C-8.47902344 10.51347656 -9.39554687 10.33945313 -10.33984375 10.16015625 C-12.625 9.625 -12.625 9.625 -13.625 8.625 C-13.75 5.125 -13.75 5.125 -13.625 1.625 C-10.93067428 -1.06932572 -3.6084786 0.09689792 0 0 Z " fill="#161616" transform="translate(307.625,206.375)"/>
<path d="M0 0 C1.80868813 0.00333092 1.80868813 0.00333092 3.65391541 0.00672913 C4.64899864 0.00651009 4.64899864 0.00651009 5.66418457 0.00628662 C7.86644207 0.00698571 10.06861596 0.01477787 12.27085876 0.02259827 C13.79400588 0.02446246 15.31715359 0.02588636 16.84030151 0.02688599 C20.85657903 0.03071105 24.87282059 0.04054124 28.88908386 0.05158997 C32.98443617 0.06180433 37.07979427 0.06638366 41.17515564 0.07142639 C49.21618779 0.08216352 57.25719069 0.0992398 65.29820251 0.12025452 C66.22491952 5.55366011 66.68857251 10.87136857 66.98570251 16.37025452 C67.04564392 17.28033264 67.10558533 18.19041077 67.16734314 19.12806702 C67.21439392 19.99689514 67.2614447 20.86572327 67.30992126 21.76087952 C67.37892639 22.94472229 67.37892639 22.94472229 67.44932556 24.15248108 C67.29820251 26.12025452 67.29820251 26.12025452 65.29820251 28.12025452 C59.96486918 28.45358785 59.96486918 28.45358785 57.29820251 27.12025452 C56.5569218 24.13253162 56.01612698 21.12982197 55.47007751 18.10072327 C53.83119286 13.93249329 52.3779683 12.98466361 48.29820251 11.12025452 C44.33688411 10.52159515 40.42470813 10.42538562 36.42320251 10.37025452 C32.75195251 10.28775452 29.08070251 10.20525452 25.29820251 10.12025452 C25.29820251 18.37025452 25.29820251 26.62025452 25.29820251 35.12025452 C31.23820251 34.62525452 31.23820251 34.62525452 37.29820251 34.12025452 C37.97882751 31.98556702 37.97882751 31.98556702 38.67320251 29.80775452 C39.63764461 26.78291341 40.50751678 24.80628311 42.29820251 22.12025452 C45.29820251 21.80775452 45.29820251 21.80775452 48.29820251 22.12025452 C50.29820251 24.12025452 50.29820251 24.12025452 50.54112244 27.25306702 C50.53701355 28.57048889 50.53290466 29.88791077 50.52867126 31.24525452 C50.52821304 31.94795471 50.52775482 32.65065491 50.52728271 33.37464905 C50.52426076 34.86083158 50.51637611 36.34701096 50.50401306 37.83314514 C50.48577457 40.11125377 50.48350326 42.38895556 50.48374939 44.66712952 C50.44572881 55.82520193 50.44572881 55.82520193 49.29820251 58.12025452 C45.92320251 58.30775452 45.92320251 58.30775452 42.29820251 58.12025452 C40.49650479 55.41770793 39.90456118 54.04165279 39.23570251 50.99525452 C38.71262507 47.36100989 38.71262507 47.36100989 37.29820251 46.12025452 C33.33820251 45.79025452 29.37820251 45.46025452 25.29820251 45.12025452 C25.29820251 54.36025452 25.29820251 63.60025452 25.29820251 73.12025452 C30.80507751 72.90369202 30.80507751 72.90369202 36.42320251 72.68275452 C37.56934021 72.63965149 38.71547791 72.59654846 39.89634705 72.55213928 C47.15646982 72.31992968 47.15646982 72.31992968 54.29820251 71.12025452 C55.64800332 69.33759566 55.64800332 69.33759566 56.29820251 67.12025452 C56.62820251 66.54275452 56.95820251 65.96525452 57.29820251 65.37025452 C58.76895868 62.06105315 59.44676271 58.63953904 60.29820251 55.12025452 C60.79320251 54.13025452 60.79320251 54.13025452 61.29820251 53.12025452 C63.93820251 53.12025452 66.57820251 53.12025452 69.29820251 53.12025452 C69.61399199 78.48867557 69.61399199 78.48867557 67.29820251 83.12025452 C58.18861087 83.14337997 49.07902926 83.16117063 39.96941471 83.17206669 C35.7398888 83.17729508 31.51038291 83.18439191 27.28086853 83.19569397 C23.20251709 83.20652443 19.12418495 83.21253169 15.04582024 83.21513176 C13.48642612 83.21698572 11.92703311 83.22060579 10.36764717 83.22598457 C8.1909109 83.23319713 6.01425537 83.23424537 3.83750916 83.23377991 C1.97552635 83.23711082 1.97552635 83.23711082 0.07592773 83.24050903 C-2.70179749 83.12025452 -2.70179749 83.12025452 -3.70179749 82.12025452 C-3.8429491 79.44966601 -3.74426856 76.79593214 -3.70179749 74.12025452 C1.24820251 73.13025452 1.24820251 73.13025452 6.29820251 72.12025452 C6.62820251 51.66025452 6.95820251 31.20025452 7.29820251 10.12025452 C4.32820251 10.12025452 1.35820251 10.12025452 -1.70179749 10.12025452 C-2.36179749 9.79025452 -3.02179749 9.46025452 -3.70179749 9.12025452 C-3.79945374 2.96791077 -3.79945374 2.96791077 -3.70179749 1.12025452 C-2.70179749 0.12025452 -2.70179749 0.12025452 0 0 Z " fill="#181818" transform="translate(214.70179748535156,206.87974548339844)"/>
<path d="M0 0 C12.21 0 24.42 0 37 0 C38 7 38 7 37 9 C34.71484375 9.4140625 34.71484375 9.4140625 31.9375 9.625 C31.01839844 9.69976562 30.09929687 9.77453125 29.15234375 9.8515625 C28.08693359 9.92503906 28.08693359 9.92503906 27 10 C27.37769531 10.96292969 27.75539062 11.92585937 28.14453125 12.91796875 C31.09683522 20.46915964 34.01892154 28.0304642 36.87890625 35.6171875 C37.12592789 36.2717543 37.37294952 36.92632111 37.62745667 37.60072327 C38.87331187 40.90270707 40.11613361 44.20578699 41.35473633 47.51049805 C41.81259521 48.72519775 42.2704541 49.93989746 42.7421875 51.19140625 C43.1532373 52.28654541 43.56428711 53.38168457 43.98779297 54.51000977 C44.77199389 56.90158259 44.77199389 56.90158259 46 58 C46.31710938 57.07445312 46.63421875 56.14890625 46.9609375 55.1953125 C50.61626067 44.64115371 54.57159152 34.21900071 58.65966797 23.82470703 C59.28639404 22.21764893 59.28639404 22.21764893 59.92578125 20.578125 C60.48906128 19.14581543 60.48906128 19.14581543 61.0637207 17.68457031 C61.95548889 15.12762558 62.54117495 12.66523819 63 10 C62.36191406 9.93941406 61.72382813 9.87882813 61.06640625 9.81640625 C60.24011719 9.73261719 59.41382813 9.64882812 58.5625 9.5625 C57.73878906 9.48128906 56.91507813 9.40007812 56.06640625 9.31640625 C54 9 54 9 53 8 C52.875 4.5 52.875 4.5 53 1 C54.90849948 -0.90849948 58.31478774 -0.13059633 60.84375 -0.1328125 C61.52804077 -0.13376923 62.21233154 -0.13472595 62.9173584 -0.13571167 C64.36661877 -0.1363933 65.81588218 -0.13454023 67.26513672 -0.13037109 C69.49062928 -0.12502252 71.71592001 -0.1303166 73.94140625 -0.13671875 C75.34635461 -0.13605797 76.75130285 -0.1347768 78.15625 -0.1328125 C79.44337891 -0.13168457 80.73050781 -0.13055664 82.05664062 -0.12939453 C85 0 85 0 86 1 C86.14115161 3.67058851 86.04247107 6.32432238 86 9 C85.39961914 9.11432373 84.79923828 9.22864746 84.18066406 9.34643555 C79.27659204 10.55352184 79.27659204 10.55352184 75.58789062 13.80322266 C74.47588094 16.10391436 73.58717056 18.39821876 72.75 20.8125 C72.26225098 22.08758423 72.26225098 22.08758423 71.76464844 23.38842773 C70.80780027 25.91428836 69.89871328 28.45296486 69 31 C68.51172499 32.33901947 68.02226541 33.677608 67.53125 35.015625 C66.73725057 37.21364782 65.95820088 39.4172101 65.203125 41.62890625 C63.59392448 46.1378025 61.79565274 50.56268956 60 55 C59.32106511 56.68988351 58.6426747 58.37998588 57.96484375 60.0703125 C56.94793054 62.60573774 55.9310068 65.14115262 54.91210938 67.67578125 C53.33163455 71.61932578 51.7810967 75.56653703 50.31640625 79.5546875 C49 83 49 83 48 84 C45.8203125 84.203125 45.8203125 84.203125 43.125 84.25 C42.24070313 84.27578125 41.35640625 84.3015625 40.4453125 84.328125 C38 84 38 84 36.28515625 82.7265625 C33.11722741 78.47056084 31.50367597 73.29412294 32 68 C31.34 68 30.68 68 30 68 C29.84144531 67.40574219 29.68289062 66.81148438 29.51953125 66.19921875 C28.21831469 61.57666488 26.73305201 57.22344766 24.6875 52.875 C22.63579029 48.50901058 20.85512299 44.08626978 19.1875 39.5625 C18.94008057 38.90411133 18.69266113 38.24572266 18.43774414 37.56738281 C16.94619786 33.59429689 15.51488174 29.60612531 14.12109375 25.59765625 C13.4568179 23.77304076 12.79146687 21.94881632 12.125 20.125 C11.83391357 19.25045166 11.54282715 18.37590332 11.24291992 17.47485352 C9.63350363 12.87790787 9.63350363 12.87790787 5.95996094 9.99121094 C3.5123996 9.31909192 3.5123996 9.31909192 0 9 C-1.125 3.375 -1.125 3.375 0 0 Z " fill="#141414" transform="translate(119,207)"/>
</svg>
